<svg width="47" height="59" viewBox="0 0 47 59" fill="none" xmlns="http://www.w3.org/2000/svg">
<path id="Vector" d="M13.9327 58.3858C12.8255 58.3858 11.8924 57.9324 11.1335 57.0256C10.3746 56.1188 9.99515 55.004 9.99515 53.681C9.99515 52.3582 10.3746 51.2433 11.1335 50.3366C11.8924 49.4298 12.8255 48.9764 13.9327 48.9764C15.0399 48.9764 15.973 49.4298 16.7319 50.3366C17.4908 51.2433 17.8702 52.3582 17.8702 53.681C17.8702 55.004 17.4908 56.1188 16.7319 57.0256C15.973 57.9324 15.0399 58.3858 13.9327 58.3858ZM38.5673 58.3858C37.4601 58.3858 36.5271 57.9324 35.7681 57.0256C35.0092 56.1188 34.6298 55.004 34.6298 53.681C34.6298 52.3582 35.0092 51.2433 35.7681 50.3366C36.5271 49.4298 37.4601 48.9764 38.5673 48.9764C39.6745 48.9764 40.6076 49.4298 41.3665 50.3366C42.1254 51.2433 42.5049 52.3582 42.5049 53.681C42.5049 55.004 42.1254 56.1188 41.3665 57.0256C40.6076 57.9324 39.6745 58.3858 38.5673 58.3858ZM10.187 9.40927L17.1938 27.0215H34.6096C34.9125 27.0215 35.1817 26.931 35.4173 26.7501C35.6529 26.5691 35.8548 26.3178 36.0231 25.9962L42.8884 11.0981C43.0904 10.6558 43.1072 10.2638 42.939 9.922C42.7707 9.58018 42.4846 9.40927 42.0808 9.40927H10.187ZM8.90479 6.27285H43.0803C44.2212 6.27285 45.0794 6.82875 45.6549 7.94056C46.2303 9.05237 46.2606 10.1974 45.7457 11.3756L38.2442 27.7091C37.8639 28.4731 37.3701 29.0722 36.7626 29.5065C36.1552 29.9408 35.488 30.158 34.761 30.158H16.0125L12.8221 37.1545C12.5529 37.6371 12.5445 38.1598 12.7969 38.7227C13.0493 39.2857 13.4279 39.5671 13.9327 39.5671H42.5049V42.7036H13.9327C12.4015 42.7036 11.2589 41.9326 10.5051 40.3905C9.7512 38.8484 9.73269 37.2993 10.4495 35.7431L14.3971 27.3351L4.74515 3.13642H0V0H6.41104L8.90479 6.27285Z" fill="black"/>
</svg>
