<svg width="37" height="41" viewBox="0 0 37 41" fill="none" xmlns="http://www.w3.org/2000/svg">
<path id="Vector" d="M3.7019 40.6667C2.64716 40.6667 1.76649 40.2748 1.0599 39.4911C0.353299 38.7075 0 37.7307 0 36.5609V4.10574C0 2.93594 0.353299 1.9592 1.0599 1.17552C1.76649 0.39184 2.64716 0 3.7019 0H18.3774V2.54167H3.7019C3.34937 2.54167 3.02618 2.70459 2.73235 3.03043C2.43856 3.35631 2.29167 3.71475 2.29167 4.10574V36.5609C2.29167 36.9519 2.43856 37.3104 2.73235 37.6362C3.02618 37.9621 3.34937 38.125 3.7019 38.125H18.3774V40.6667H3.7019ZM28.5577 29.327L26.9491 27.4989L32.264 21.6042H11.899V19.0625H32.264L26.9491 13.1678L28.5577 11.3397L36.6667 20.3333L28.5577 29.327Z" fill="black"/>
</svg>
