<svg width="51" height="49" viewBox="0 0 51 49" fill="none" xmlns="http://www.w3.org/2000/svg">
<g id="lupa 4" clip-path="url(#clip0_48_548)">
<path id="Vector" d="M41.4048 30.9393L28.099 18.1553C27.0365 19.0243 25.8147 19.697 24.4334 20.1734C23.0522 20.6498 21.6641 20.888 20.2692 20.888C16.8657 20.888 13.9851 19.7561 11.6276 17.4922C9.27008 15.2284 8.09131 12.4623 8.09131 9.19402C8.09131 5.92572 9.26943 3.15752 11.6257 0.889436C13.9819 -1.37865 16.8609 -2.5127 20.2626 -2.5127C23.6643 -2.5127 26.5455 -1.38017 28.9061 0.884894C31.2668 3.14995 32.4471 5.91753 32.4471 9.18764C32.4471 10.6063 32.1856 11.9792 31.6625 13.3063C31.1394 14.6334 30.4529 15.7681 29.6029 16.7104L42.9087 29.4944L41.4048 30.9393ZM20.2692 18.8463C23.0889 18.8463 25.4693 17.9138 27.4104 16.0488C29.3515 14.1838 30.3221 11.8968 30.3221 9.18764C30.3221 6.47852 29.3515 4.19146 27.4104 2.32647C25.4693 0.461471 23.0889 -0.471029 20.2692 -0.471029C17.4495 -0.471029 15.0691 0.461471 13.128 2.32647C11.1869 4.19146 10.2164 6.47852 10.2164 9.18764C10.2164 11.8968 11.1869 14.1838 13.128 16.0488C15.0691 17.9138 17.4495 18.8463 20.2692 18.8463Z" fill="black"/>
</g>
<defs>
<clipPath id="clip0_48_548">
<rect width="51" height="49" fill="white"/>
</clipPath>
</defs>
</svg>
