<svg width="48" height="44" viewBox="0 0 48 44" fill="none" xmlns="http://www.w3.org/2000/svg">
<path id="Vector" d="M8.52307 35.0045C10.7897 33.5266 13.1949 32.3578 15.7385 31.498C18.2821 30.6382 21.0359 30.2083 24 30.2083C26.9641 30.2083 29.7179 30.6382 32.2615 31.498C34.8051 32.3578 37.2103 33.5266 39.4769 35.0045C41.2376 33.3531 42.6538 31.4027 43.7257 29.1533C44.7974 26.904 45.3333 24.4362 45.3333 21.75C45.3333 16.3931 43.2556 11.8316 39.1 8.06563C34.9444 4.29965 29.9111 2.41667 24 2.41667C18.0889 2.41667 13.0556 4.29965 8.9 8.06563C4.74444 11.8316 2.66667 16.3931 2.66667 21.75C2.66667 24.4362 3.20256 26.904 4.27433 29.1533C5.34616 31.4027 6.7624 33.3531 8.52307 35.0045ZM24.0015 22.9583C21.7543 22.9583 19.859 22.2594 18.3154 20.8615C16.7718 19.4635 16 17.7462 16 15.7097C16 13.6732 16.7713 11.9555 18.3138 10.5567C19.8564 9.15778 21.7513 8.45833 23.9985 8.45833C26.2457 8.45833 28.141 9.15731 29.6846 10.5553C31.2282 11.9532 32 13.6704 32 15.7069C32 17.7435 31.2287 19.4612 29.6861 20.86C28.1436 22.2589 26.2487 22.9583 24.0015 22.9583ZM24 43.5C20.653 43.5 17.5196 42.9353 14.6 41.806C11.6804 40.6767 9.14018 39.133 6.97947 37.1749C4.8188 35.2167 3.11538 32.9147 1.8692 30.2687C0.623066 27.6228 0 24.7832 0 21.75C0 18.7168 0.623066 15.8772 1.8692 13.2312C3.11538 10.5853 4.8188 8.28329 6.97947 6.32514C9.14018 4.36704 11.6804 2.82331 14.6 1.69396C17.5196 0.564656 20.653 0 24 0C27.347 0 30.4804 0.564656 33.4 1.69396C36.3196 2.82331 38.8598 4.36704 41.0205 6.32514C43.1812 8.28329 44.8846 10.5853 46.1308 13.2312C47.3769 15.8772 48 18.7168 48 21.75C48 24.7832 47.3769 27.6228 46.1308 30.2687C44.8846 32.9147 43.1812 35.2167 41.0205 37.1749C38.8598 39.133 36.3196 40.6767 33.4 41.806C30.4804 42.9353 27.347 43.5 24 43.5ZM24 41.0833C26.4581 41.0833 28.8769 40.6937 31.2564 39.9145C33.6359 39.1353 35.6923 38.0687 37.4257 36.7147C35.6923 35.4537 33.6872 34.4569 31.4103 33.7241C29.1333 32.9914 26.6632 32.625 24 32.625C21.3368 32.625 18.8581 32.9836 16.5641 33.7009C14.2701 34.4181 12.2735 35.4227 10.5743 36.7147C12.3077 38.0687 14.3641 39.1353 16.7436 39.9145C19.1231 40.6937 21.5419 41.0833 24 41.0833ZM24 20.5417C25.4974 20.5417 26.7607 20.0754 27.7897 19.1428C28.8188 18.2102 29.3333 17.0654 29.3333 15.7083C29.3333 14.3513 28.8188 13.2065 27.7897 12.2739C26.7607 11.3413 25.4974 10.875 24 10.875C22.5026 10.875 21.2393 11.3413 20.2103 12.2739C19.1812 13.2065 18.6667 14.3513 18.6667 15.7083C18.6667 17.0654 19.1812 18.2102 20.2103 19.1428C21.2393 20.0754 22.5026 20.5417 24 20.5417Z" fill="black"/>
</svg>
